<svg xmlns="http://www.w3.org/2000/svg" width="32" height="32" viewBox="0 0 32 32" fill="none">
<path d="M25.6939 7.10652C23.9205 6.27986 22.0005 5.67986 20.0005 5.33319C19.983 5.33263 19.9656 5.33592 19.9494 5.34283C19.9333 5.34974 19.9189 5.36011 19.9072 5.37319C19.6672 5.81319 19.3872 6.38652 19.2005 6.82652C17.0792 6.50652 14.9219 6.50652 12.8005 6.82652C12.6139 6.37319 12.3339 5.81319 12.0805 5.37319C12.0672 5.34652 12.0272 5.33319 11.9872 5.33319C9.98721 5.67986 8.08054 6.27986 6.29388 7.10652C6.28054 7.10652 6.26721 7.11986 6.25388 7.13319C2.62721 12.5599 1.62721 17.8399 2.12054 23.0665C2.12054 23.0932 2.13388 23.1199 2.16054 23.1332C4.56054 24.8932 6.86721 25.9599 9.14721 26.6665C9.18721 26.6799 9.22721 26.6665 9.24054 26.6399C9.77388 25.9065 10.2539 25.1332 10.6672 24.3199C10.6939 24.2665 10.6672 24.2132 10.6139 24.1999C9.85388 23.9065 9.13388 23.5599 8.42721 23.1599C8.37388 23.1332 8.37388 23.0532 8.41388 23.0132C8.56054 22.9065 8.70721 22.7865 8.85388 22.6799C8.88054 22.6532 8.92054 22.6532 8.94721 22.6665C13.5339 24.7599 18.4805 24.7599 23.0139 22.6665C23.0405 22.6532 23.0805 22.6532 23.1072 22.6799C23.2539 22.7999 23.4005 22.9065 23.5472 23.0265C23.6005 23.0665 23.6005 23.1465 23.5339 23.1732C22.8405 23.5865 22.1072 23.9199 21.3472 24.2132C21.2939 24.2265 21.2805 24.2932 21.2939 24.3332C21.7205 25.1465 22.2005 25.9199 22.7205 26.6532C22.7605 26.6665 22.8005 26.6799 22.8405 26.6665C25.1339 25.9599 27.4405 24.8932 29.8405 23.1332C29.8672 23.1199 29.8805 23.0932 29.8805 23.0665C30.4672 17.0265 28.9072 11.7865 25.7472 7.13319C25.7339 7.11986 25.7205 7.10652 25.6939 7.10652ZM11.3605 19.8799C9.98721 19.8799 8.84054 18.6132 8.84054 17.0532C8.84054 15.4932 9.96054 14.2265 11.3605 14.2265C12.7739 14.2265 13.8939 15.5065 13.8805 17.0532C13.8805 18.6132 12.7605 19.8799 11.3605 19.8799ZM20.6539 19.8799C19.2805 19.8799 18.1339 18.6132 18.1339 17.0532C18.1339 15.4932 19.2539 14.2265 20.6539 14.2265C22.0672 14.2265 23.1872 15.5065 23.1739 17.0532C23.1739 18.6132 22.0672 19.8799 20.6539 19.8799Z" fill="white"/>
</svg>