<svg width="24" height="24" viewBox="0 0 24 24" fill="none" xmlns="http://www.w3.org/2000/svg">
<path d="M9.22946 16.8226C9.08546 16.8226 8.94946 16.7941 8.81846 16.7521L8.81596 16.7621L6.98096 16.2311C7.30296 17.1701 8.18396 17.8496 9.23096 17.8496C10.5515 17.8496 11.619 16.7816 11.619 15.4616C11.619 14.1416 10.5515 13.0731 9.23096 13.0731C8.66046 13.0731 8.14346 13.2821 7.73196 13.6166L9.49996 14.1276C9.51446 14.1311 9.52746 14.1366 9.54196 14.1396L9.56646 14.1476V14.1486C9.8881 14.2295 10.169 14.4253 10.3561 14.6991C10.5433 14.973 10.6237 15.3058 10.5822 15.6349C10.5408 15.9639 10.3803 16.2664 10.1311 16.4852C9.88182 16.704 9.56111 16.8241 9.22946 16.8226ZM15.4615 12.1496C16.2355 12.1492 16.9776 11.8415 17.5249 11.2942C18.0721 10.7468 18.3797 10.0046 18.38 9.2306C18.3796 8.45669 18.0719 7.71459 17.5247 7.16735C16.9775 6.62011 16.2354 6.3125 15.4615 6.3121C14.6875 6.3125 13.9454 6.62011 13.3982 7.16735C12.851 7.71459 12.5434 8.45669 12.543 9.2306C12.5432 10.0046 12.8508 10.7468 13.398 11.2942C13.9453 11.8415 14.6875 12.1492 15.4615 12.1496ZM15.46 7.2046C15.7261 7.20444 15.9897 7.2567 16.2357 7.3584C16.4816 7.4601 16.7051 7.60926 16.8935 7.79734C17.0818 7.98543 17.2312 8.20876 17.3332 8.4546C17.4352 8.70043 17.4878 8.96395 17.488 9.2301C17.4881 9.49626 17.4359 9.75984 17.3342 10.0058C17.2325 10.2518 17.0833 10.4753 16.8952 10.6636C16.7071 10.8519 16.4838 11.0013 16.238 11.1033C15.9921 11.2054 15.7286 11.2579 15.4625 11.2581C14.9249 11.2584 14.4093 11.0452 14.029 10.6654C13.6486 10.2855 13.4348 9.77013 13.4345 9.2326C13.4341 8.69508 13.6473 8.17943 14.0272 7.79911C14.4071 7.41878 14.9224 7.20494 15.46 7.2046Z" fill="#101D3F"/>
<path d="M18.9999 3.00009H4.99994C4.46951 3.00009 3.9608 3.21081 3.58573 3.58588C3.21065 3.96095 2.99994 4.46966 2.99994 5.00009V12.2476L6.51344 13.2641C7.15694 12.4691 8.12794 11.9511 9.23044 11.9511C9.26544 11.9511 9.29794 11.9611 9.33244 11.9616L11.2704 9.28409C11.2704 9.26659 11.2679 9.24809 11.2679 9.23159C11.2677 8.40215 11.5135 7.59128 11.9742 6.90154C12.4349 6.21179 13.0897 5.67414 13.856 5.35659C14.6222 5.03904 15.4654 4.95585 16.2789 5.11755C17.0925 5.27924 17.8398 5.67855 18.4263 6.26499C19.0129 6.85142 19.4124 7.59863 19.5743 8.41211C19.7362 9.2256 19.6532 10.0688 19.3358 10.8351C19.0185 11.6015 18.481 12.2565 17.7913 12.7173C17.1017 13.1781 16.2909 13.4241 15.4614 13.4241C15.4394 13.4241 15.4179 13.4211 15.3954 13.4206L12.7304 15.3561C12.7314 15.3911 12.7409 15.4261 12.7409 15.4616C12.741 15.9226 12.6502 16.3791 12.4739 16.8051C12.2975 17.231 12.0389 17.618 11.7129 17.944C11.3869 18.27 10.9999 18.5286 10.5739 18.705C10.148 18.8814 9.69146 18.9722 9.23044 18.9721C7.43394 18.9721 5.97044 17.6186 5.76194 15.8781L2.99994 15.0791V19.0001C2.99994 19.5305 3.21065 20.0392 3.58573 20.4143C3.9608 20.7894 4.46951 21.0001 4.99994 21.0001H18.9999C19.5304 21.0001 20.0391 20.7894 20.4142 20.4143C20.7892 20.0392 20.9999 19.5305 20.9999 19.0001V5.00009C20.9999 4.46966 20.7892 3.96095 20.4142 3.58588C20.0391 3.21081 19.5304 3.00009 18.9999 3.00009Z" fill="#101D3F"/>
</svg>
