<svg xmlns="http://www.w3.org/2000/svg" width="32" height="32" viewBox="0 0 32 32" fill="none">
<g clip-path="url(#clip0_129_22549)">
<path fill-rule="evenodd" clip-rule="evenodd" d="M26.6139 2.33319C25.4499 2.33319 24.4326 2.97186 23.8966 3.91719L19.0966 2.93186C18.8703 2.88552 18.6351 2.9189 18.4307 3.02633C18.2263 3.13375 18.0654 3.3086 17.9752 3.52119C17.4272 4.80919 16.6059 6.76253 15.9192 8.43453C15.6179 9.17053 15.3406 9.85586 15.1246 10.4079C12.5672 10.5305 10.2019 11.1945 8.24855 12.2532C7.88148 11.7536 7.40557 11.344 6.85684 11.0554C6.30812 10.7669 5.70095 10.6069 5.08128 10.5876C4.46161 10.5684 3.84567 10.6903 3.28007 10.9442C2.71447 11.198 2.21402 11.5772 1.81659 12.0531C1.41916 12.5289 1.13517 13.0889 0.986091 13.6907C0.837016 14.2925 0.826767 14.9203 0.956119 15.5266C1.08547 16.1329 1.35104 16.7019 1.73272 17.1904C2.1144 17.679 2.60221 18.0743 3.15922 18.3465C3.0419 18.8659 2.98287 19.3967 2.98322 19.9292C2.98322 22.6492 4.51789 25.0519 6.87789 26.7479C9.23789 28.4452 12.4659 29.4732 16.0006 29.4732C19.5339 29.4732 22.7619 28.4452 25.1232 26.7479C27.4832 25.0519 29.0179 22.6505 29.0179 19.9292C29.0179 19.3892 28.9579 18.8599 28.8419 18.3479C29.3979 18.0752 29.8848 17.6797 30.2656 17.1913C30.6463 16.7029 30.9111 16.1343 31.04 15.5286C31.1688 14.9228 31.1582 14.2957 31.0091 13.6946C30.86 13.0935 30.5762 12.5342 30.1792 12.0588C29.7822 11.5835 29.2824 11.2046 28.7174 10.9508C28.1525 10.697 27.5373 10.575 26.9183 10.5938C26.2993 10.6126 25.6926 10.7719 25.1442 11.0596C24.5958 11.3473 24.1199 11.7559 23.7526 12.2545C21.8992 11.2479 19.6739 10.5999 17.2672 10.4305L17.7699 9.19319C18.3286 7.83186 18.9792 6.27986 19.4966 5.05586L23.5206 5.88252C23.6022 6.47672 23.8532 7.03484 24.2435 7.49023C24.6338 7.94563 25.147 8.27903 25.7217 8.45062C26.2964 8.62221 26.9084 8.62473 27.4845 8.45788C28.0606 8.29104 28.5765 7.96188 28.9706 7.50972C29.3646 7.05756 29.6202 6.50152 29.7068 5.90802C29.7933 5.31452 29.7072 4.70865 29.4587 4.16278C29.2102 3.61691 28.8098 3.15412 28.3053 2.82968C27.8009 2.50525 27.2137 2.33289 26.6139 2.33319ZM25.4912 5.45586C25.4912 5.15793 25.6096 4.87221 25.8202 4.66154C26.0309 4.45088 26.3166 4.33252 26.6146 4.33252C26.9125 4.33252 27.1982 4.45088 27.4089 4.66154C27.6195 4.87221 27.7379 5.15793 27.7379 5.45586C27.7379 5.75378 27.6195 6.03951 27.4089 6.25017C27.1982 6.46084 26.9125 6.57919 26.6146 6.57919C26.3166 6.57919 26.0309 6.46084 25.8202 6.25017C25.6096 6.03951 25.4912 5.75378 25.4912 5.45586ZM28.1352 16.4559C27.5086 15.2785 26.5806 14.2252 25.4366 13.3439C25.6299 13.1102 25.8718 12.9215 26.1454 12.7908C26.4191 12.6601 26.7179 12.5905 27.0211 12.587C27.3243 12.5835 27.6247 12.6461 27.9013 12.7704C28.1779 12.8947 28.4241 13.0778 28.6228 13.3069C28.8215 13.536 28.9679 13.8057 29.0518 14.0971C29.1357 14.3885 29.1551 14.6947 29.1087 14.9944C29.0623 15.2941 28.9512 15.58 28.7831 15.8324C28.615 16.0848 28.3939 16.2976 28.1352 16.4559ZM6.56455 13.3439C6.37134 13.1098 6.12943 12.9207 5.85567 12.7898C5.58192 12.6588 5.2829 12.589 4.97945 12.5854C4.67599 12.5818 4.37539 12.6443 4.09858 12.7687C3.82177 12.8931 3.5754 13.0764 3.37663 13.3057C3.17786 13.535 3.03147 13.8049 2.94766 14.0966C2.86384 14.3882 2.84461 14.6947 2.89131 14.9945C2.93801 15.2944 3.04951 15.5805 3.21806 15.8329C3.3866 16.0852 3.60813 16.2978 3.86722 16.4559C4.49389 15.2785 5.42055 14.2252 6.56455 13.3439ZM20.7166 19.9305C21.2284 19.9305 21.7193 19.7272 22.0813 19.3652C22.4432 19.0033 22.6466 18.5124 22.6466 18.0005C22.6466 17.4887 22.4432 16.9978 22.0813 16.6358C21.7193 16.2739 21.2284 16.0705 20.7166 16.0705C20.2049 16.0705 19.7141 16.2738 19.3523 16.6356C18.9905 16.9974 18.7872 17.4882 18.7872 17.9999C18.7872 18.5115 18.9905 19.0023 19.3523 19.3641C19.7141 19.7259 20.2049 19.9292 20.7166 19.9292V19.9305ZM13.2072 17.9999C13.2072 18.5117 13.0039 19.0026 12.6419 19.3646C12.28 19.7265 11.7891 19.9299 11.2772 19.9299C10.7654 19.9299 10.2745 19.7265 9.91251 19.3646C9.55056 19.0026 9.34722 18.5117 9.34722 17.9999C9.34722 17.488 9.55056 16.9971 9.91251 16.6351C10.2745 16.2732 10.7654 16.0699 11.2772 16.0699C11.7891 16.0699 12.28 16.2732 12.6419 16.6351C13.0039 16.9971 13.2072 17.488 13.2072 17.9999ZM11.8006 22.1719C11.5766 22.0401 11.3102 22.0007 11.0577 22.062C10.8052 22.1233 10.5864 22.2804 10.4478 22.5002C10.3091 22.7199 10.2615 22.985 10.3149 23.2393C10.3683 23.4936 10.5186 23.7171 10.7339 23.8625L11.1939 24.1532C12.6312 25.0598 14.2959 25.5409 15.9952 25.5409C17.6946 25.5409 19.3592 25.0598 20.7966 24.1532L21.2566 23.8639C21.3677 23.7938 21.464 23.7026 21.54 23.5953C21.6159 23.4881 21.6699 23.3669 21.699 23.2388C21.7281 23.1106 21.7317 22.978 21.7095 22.8485C21.6874 22.7189 21.6399 22.595 21.5699 22.4839C21.4998 22.3727 21.4086 22.2764 21.3013 22.2005C21.1941 22.1245 21.0729 22.0705 20.9448 22.0414C20.8166 22.0123 20.684 22.0087 20.5545 22.0309C20.425 22.053 20.3011 22.1005 20.1899 22.1705L19.7299 22.4612C18.6119 23.1664 17.3171 23.5407 15.9952 23.5407C14.6734 23.5407 13.3785 23.1664 12.2606 22.4612L11.8006 22.1719Z" fill="white"/>
</g>
<defs>
<clipPath id="clip0_129_22549">
<rect width="32" height="32" fill="white" transform="translate(0.000549316 -0.000152588)"/>
</clipPath>
</defs>
</svg>