<svg width="21" height="20" viewBox="0 0 21 20" fill="none" xmlns="http://www.w3.org/2000/svg">
<path d="M8.7198 1.47669C9.46292 0.0253952 11.5371 0.0253949 12.2802 1.47669L13.7923 4.42981C14.0828 4.99716 14.6264 5.39206 15.2557 5.49303L18.5316 6.01857C20.1415 6.27685 20.7824 8.24949 19.6318 9.40471L17.2905 11.7554C16.8407 12.207 16.633 12.846 16.7315 13.4757L17.244 16.7536C17.4958 18.3646 15.8178 19.5837 14.3636 18.8464L11.4044 17.3461C10.8359 17.0578 10.1641 17.0578 9.59557 17.3461L6.63644 18.8464C5.1822 19.5837 3.50416 18.3646 3.75602 16.7536L4.26849 13.4757C4.36695 12.846 4.15934 12.207 3.70953 11.7554L1.36821 9.40471C0.217583 8.24949 0.858535 6.27685 2.46843 6.01857L5.74429 5.49303C6.37364 5.39206 6.91718 4.99716 7.20768 4.42981L8.7198 1.47669Z" fill="#EC6122"/>
</svg>
