<svg xmlns="http://www.w3.org/2000/svg" width="32" height="32" viewBox="0 0 32 32" fill="none">
<path d="M25.0125 7.98755C24.8256 7.8898 24.6436 7.78266 24.4673 7.66652C23.955 7.32398 23.4852 6.92041 23.0681 6.4645C22.0232 5.25625 21.6331 4.03059 21.4904 3.17325H21.4953C21.3759 2.46025 21.4251 1.99985 21.4338 1.99985H16.6773V20.5938C16.6773 20.8427 16.6773 21.0903 16.6674 21.3342C16.6674 21.3641 16.6637 21.3915 16.6625 21.425C16.6625 21.4375 16.6625 21.4524 16.6588 21.4661V21.4773C16.6089 22.1443 16.3975 22.7886 16.0435 23.3537C15.6894 23.9187 15.2034 24.387 14.6282 24.7175C14.0282 25.0627 13.3495 25.2437 12.6592 25.2426C10.444 25.2426 8.64722 23.416 8.64722 21.16C8.64722 18.9028 10.444 17.0761 12.6592 17.0761C13.0788 17.0761 13.496 17.1433 13.8947 17.2752L13.9009 12.3775C12.6899 12.2196 11.4598 12.3171 10.288 12.6641C9.1162 13.0111 8.02828 13.5999 7.0929 14.3934C6.2731 15.1132 5.58385 15.9723 5.05616 16.9318C4.85556 17.2814 4.09748 18.6888 4.00641 20.9709C3.94857 22.265 4.33376 23.6088 4.51713 24.1626V24.175C4.63158 24.501 5.07954 25.6159 5.80809 26.5554C6.3956 27.3095 7.08976 27.9719 7.86821 28.5214V28.509L7.87929 28.5214C10.1806 30.1017 12.7342 29.9985 12.7342 29.9985C13.176 29.9798 14.6565 29.9985 16.3376 29.1934C18.202 28.3 19.2629 26.9698 19.2629 26.9698C19.9411 26.1748 20.4805 25.2688 20.8578 24.2907C21.2885 23.146 21.4313 21.7747 21.4313 21.2272V11.3609C21.4891 11.3958 22.2583 11.9097 22.2583 11.9097C22.2583 11.9097 23.3659 12.6277 25.0925 13.0943C26.3305 13.4265 28.0005 13.4974 28.0005 13.4974V8.72295C27.416 8.78766 26.2284 8.60101 25.0113 7.9888L25.0125 7.98755Z" fill="white"/>
</svg>