<svg width="114" height="85" viewBox="0 0 114 85" fill="none" xmlns="http://www.w3.org/2000/svg">
<g clip-path="url(#clip0_129_23898)">
<path d="M0 16.5551L2.23731 15.8532L4.30976 14.7285L6.38619 13.6035L8.62639 13.0083L9.56783 15.493L10.9968 17.8021L12.2146 20.2079L13.3526 22.6512L14.1851 25.2364L15.5188 27.5946L16.5494 30.2575L16.2663 27.6928L16.336 25.2717L16.2091 22.8622L15.8687 20.465L15.833 18.0455L15.5045 15.4962L18.0054 15.4639L20.2413 14.7864L22.5876 14.7328L24.6628 14.218L24.4327 16.5412L24.2547 19.051L23.6821 21.5039L23.6406 24.0334L23.1763 26.5013L22.819 28.9849L22.5574 31.4829L22.2354 33.9763L21.3923 36.4279L21.7267 39.2378L22.4214 41.9704L22.4593 44.7955L23.2111 47.6056L20.8234 48.0562L18.549 48.5892L16.1924 48.729L14.1221 49.1689L13.7569 46.7464L13.4656 44.1225L13.7675 41.4751L13.4374 38.8478L13.6995 36.1184L11.941 34.023L10.3904 31.8793L9.00069 29.6253L7.38631 27.5291L6.06083 25.2311L4.52711 23.0755L2.89673 20.9855L1.58725 18.6703L0 16.5551Z" fill="white"/>
<path d="M27.3017 11.7945L27.6837 14.5682L27.3467 17.2043L27.3244 19.8408L27.4948 22.4777L27.6458 25.1137L27.1898 27.7493L27.6801 30.3869L27.5925 33.0279L27.6448 35.6774L27.4112 38.3425L26.7429 40.963L26.9932 43.6658L26.5385 46.3159L28.9823 45.6315L31.4696 45.2363L33.9808 44.9731L36.453 44.484L38.9194 43.9602L41.4727 43.9466L43.9524 43.5022L46.4266 43.0229L48.9325 42.7038L51.4852 42.1268L51.816 39.6346L51.964 37.2174L51.8894 34.9375L49.3559 35.3101L46.865 36.3668L44.2758 37.0656L41.6641 37.6851L39.1252 38.5866L36.6124 38.848L36.5533 36.6181L36.7607 34.1895L36.8321 31.5685L39.5903 31.309L42.2798 31.0103L42.2445 28.0662L41.7079 25.3622L39.4925 25.4677L37.3984 25.7024L37.5722 23.209L37.7979 20.5083L37.6077 17.6308L40.1671 17.0888L42.5749 16.5774L44.8692 15.9911L45.0458 13.3083L45.3021 10.5395L45.1184 7.78076L42.6733 8.61567L40.0754 8.88558L37.5163 9.31652L35.0714 10.2347L32.5726 10.9268L30.0431 11.5352L27.3017 11.7945Z" fill="white"/>
<path d="M66.5051 39.6838L66.1941 37.5988L66.3788 35.4602L65.7966 33.4102L65.9005 31.2818L65.5539 29.2075L64.9974 27.1548L65.0051 25.0373L64.8758 22.9365L64.3998 20.8765L64.1745 18.7865L64.1294 16.6778L63.8814 14.5911L63.4191 12.5316L63.3013 10.4302L62.881 8.36584L62.6385 6.28259L62.7033 4.1622L62.3366 2.08971L62.1107 0L60.1842 0.289589L58.2642 0.619527L56.3235 0.748005L54.3723 0.782814L52.4625 1.16706L50.5472 1.48533L48.7718 1.74924L48.4177 3.74687L48.4582 5.91237L48.2037 8.04902L47.9171 10.1823L47.6966 12.3211L47.5515 14.4638L47.2876 16.5989L47.0292 18.7344L46.9974 20.8885L46.5913 23.0093L46.4861 25.1573L46.3056 27.2968L46.3072 29.4532L46.0793 31.5873L45.8626 33.7169L47.8965 33.413L49.8344 32.6978L51.9621 32.3119L51.7912 30.086L52.3215 28.0221L52.4466 26.0399L54.4261 26.105L56.3899 26.1883L56.6581 28.033L56.2155 29.9844L56.2631 31.952L56.3263 33.9198L56.234 35.8811L55.8878 37.8301L56.1602 39.8059L55.9087 41.7543L58.1018 41.6244L60.3008 41.7942L62.4963 41.5644L64.6912 41.6876L66.7619 41.6446L66.5051 39.6838ZM54.8615 20.4867L53.0755 20.3367L53.269 18.6869L53.2419 16.964L53.4407 15.2581L53.651 13.5529L53.928 11.8529L53.8396 10.1195L54.0331 8.41505L55.8175 8.27987L55.8884 9.96458L56.1589 11.6617L56.281 13.3712L56.4647 15.0766L56.403 16.7998L56.6468 18.5034L56.7107 20.2546L54.8615 20.4867Z" fill="white"/>
<path d="M77.6657 41.3975L75.5868 41.5362L73.3191 41.4014L71.0629 41.9193L68.8057 41.7461L68.4689 39.2809L68.455 36.7815L68.4395 34.2829L68.3925 31.7859L67.9372 29.3141L67.6848 26.8255L67.653 24.3228L67.2973 21.958L67.4091 19.5681L67.3164 17.192L66.9245 14.8295L67.093 12.4363L66.7807 10.0685L66.784 7.67979L66.6261 5.26709L68.7884 4.97382L70.9248 4.74891L73.0439 4.65967L73.4833 6.93308L73.7113 9.25994L73.8597 11.5997L74.1793 13.9178L74.4794 16.2391L74.6244 18.5839L75.0724 20.9608L77.5473 21.1548L79.8696 20.8784L79.8735 18.4545L79.7288 15.9485L79.828 13.4308L79.6695 10.926L79.277 8.43211L78.993 5.93236L79.2026 3.40511L79.0542 0.937312L81.3935 0.89509L83.7744 1.02397L86.1615 0.859375L88.5467 1.00288L90.826 1.22203L91.1139 3.54219L91.0767 5.96659L90.7359 8.38991L91.1345 10.8144L90.7523 13.2382L91.1589 15.6625L90.6925 18.0867L90.9386 20.5115L90.8682 22.9331L91.0759 25.3575L91.1998 27.7791L90.6777 30.2037L90.7539 32.6268L90.7057 35.0522L90.7554 37.4762L91.1315 39.9014L91.0904 42.3276L90.9145 44.7538L91.0368 47.1801L90.8912 49.6057L90.9383 52.0316L90.9107 54.4581L90.9944 56.8885L90.7749 59.1444L88.7302 59.0581L86.6475 58.26L84.4754 57.8601L82.2659 57.6118L80.0845 56.96L79.9693 54.4503L80.5339 52.0074L80.4416 49.552L80.1447 47.091L80.1675 44.6358L80.4872 42.1868L80.3092 39.7273L80.3265 37.2726L80.58 34.8226L80.5957 32.3669L80.9793 29.915L80.8041 27.4316L78.5028 27.2268L76.2984 27.4234L76.4175 29.7216L76.8021 32.0739L76.8347 34.4672L77.529 36.7846L77.6381 39.1757L77.6657 41.3975Z" fill="white"/>
<path d="M62.6577 55.2031L64.1176 55.622L65.5252 56.2228L67.0254 56.52L68.4901 56.9366L69.912 57.4976L71.3797 57.914L72.7818 58.5557L74.4448 58.8715L76.0432 59.4109L77.7154 59.687L79.3092 60.2487L80.9495 60.6291L82.5318 61.2279L84.229 61.4179L85.8263 61.9704L87.4521 62.4212L89.0269 63.0665L90.7701 63.3062L90.5308 64.8892L90.4506 66.4218L90.4981 67.9622L90.2111 69.4856L90.1259 71.0176L89.9711 72.7551L89.6244 74.4745L89.3815 76.2114L89.3815 77.9848L89.0998 79.7198L88.6909 81.4124L87.0577 81.2795L85.425 81.2559L83.7905 81.4195L82.1573 81.3823L80.5227 81.4039L78.8907 81.4523L77.2601 81.2326L75.6244 81.3988L73.9902 81.3354L72.3575 81.1207L70.721 81.1223L69.0845 81.1565L67.4491 81.0502L65.8083 81.3426L64.1701 81.2562L62.5328 81.004L60.8942 80.9657L59.2585 81.0273L57.6198 81.1793L55.9857 81.1897L54.354 81.2004L52.7153 81.0529L52.9164 79.3997L52.8872 77.7339L53.1669 76.0924L53.4356 74.4481L53.5429 72.7897L53.6706 71.1326L53.8711 69.4791L53.9284 67.8887L55.4655 67.8713L57.0595 68.133L58.6709 68.1975L60.2801 68.2673L61.8721 68.5789L63.4806 68.6694L65.109 68.5279L66.7032 68.8063L68.2966 69.1062L69.9162 69.0819L71.5186 69.233L73.124 69.3719L74.7223 69.6247L76.354 69.4567L77.9581 69.6436L79.5618 69.8695L81.1494 69.9562L81.0302 67.5373L79.3052 67.4923L77.7528 67.12L76.1903 66.7996L74.5859 66.7541L73.0364 66.3511L71.4848 65.9678L69.8654 66.0004L68.3093 65.6415L66.7489 65.3045L65.1393 65.2767L63.5977 64.8385L62.017 64.632L60.4278 64.4683L58.8739 64.0807L57.3075 63.7689L55.7024 63.6843L54.2024 63.305L54.2341 61.8093L54.2585 60.2522L54.3349 58.6968L54.2243 57.1342L54.2928 55.5756L54.4011 54.0173L54.4211 52.4893L54.5126 50.9655L54.8659 49.4592L54.8449 47.9272L54.9598 46.4019L55.048 44.8349L56.6595 44.7909L58.2349 44.8015L59.8092 44.7953L61.385 44.7816L62.9588 44.6926L64.5354 44.7664L66.1117 44.8108L67.6854 44.8521L69.2569 44.5652L70.8348 44.6325L72.4106 44.5146L73.9908 44.7243L75.5695 44.6054L77.0767 44.6632L77.1934 46.2848L76.9148 47.9703L77.2099 49.6687L77.0892 51.3594L77.0303 53.0517L77.0116 54.7475L76.9707 56.4977L75.3992 55.9584L73.7914 55.857L72.2708 55.3695L70.7399 54.9189L69.1567 54.6992L67.624 54.2476L66.0437 54.0116L64.4469 53.8389L62.9031 53.424" fill="white"/>
<path d="M44.7985 65.0428L46.9869 66.1171L49.9689 66.8697L50.5993 67.0771L50.6031 67.0021L50.449 64.6511L50.6197 62.1302L50.5034 59.6363L50.7937 57.1571L50.4595 54.6559L50.843 52.1805L51.0397 49.6976L51.1963 47.2093L50.9934 44.8872L47.2809 45.4684L43.9533 45.6142L43.6946 46.4929L43.194 50.091L42.8109 52.7799L42.4191 55.4674L41.7232 58.0985L41.3158 60.7827L41.165 63.5144L40.8921 64.2029L42.2476 64.6352L44.7985 65.0428Z" fill="white"/>
<path d="M26.6499 65.8561L27.7052 68.3893L30.1909 68.3501L32.8358 68.6603L32.3672 66.0725L32.0602 63.6461L31.7677 61.2139L31.4769 58.7427L28.4309 59.7879L25.3862 60.6015L25.9693 63.2181L26.6499 65.8561Z" fill="white"/>
<path d="M33.7504 63.5127L33.6745 66.0034L34.2566 68.2928L36.7423 67.8658L37.9376 65.2162L39.3252 64.2617L39.5177 62.0185L39.855 59.4348L40.0419 56.8599L37.7743 57.6976L35.3681 58.0858L32.7917 58.5017L33.2911 61.0901L33.7504 63.5127Z" fill="white"/>
<path d="M50.5441 68.7255L49.6375 68.427L46.722 67.649L44.63 66.6572L42.3231 66.1918L40.8921 65.6152L40.3015 65.4269L39.7132 65.8316L39.145 66.2223L38.1852 67.8046L37.8496 68.8652L38.796 69.8451L38.9342 70.0207L40.4824 71.1995L42.2372 72.9338L43.806 74.436L44.2917 75.4277L44.9516 76.5445L40.9763 73.4109L39.12 72.0864L37.526 70.5145L37.0162 69.8688L36.7665 69.9151L34.7092 69.972L32.0378 70.2374L29.0962 70.2234L26.2773 69.7784L25.5055 67.3248L25.0557 64.6714L24.5748 62.0253L23.7063 59.4607L23.1088 56.8382L22.796 54.1514L22.2204 51.5938L16.9831 52.4765L14.4138 53.3518L15.095 55.9867L15.2346 58.6394L15.7859 61.2282L15.8994 63.8861L16.3638 66.4887L16.6284 68.9096L17.0206 71.4077L17.5935 73.9197L18.2949 76.4894L18.9182 79.961L22.2465 81.853L24.5069 83.0324L26.9079 83.9499L29.1758 85.0003L31.8414 84.651L34.4842 83.9882L37.0668 83.0822L39.7552 82.6073L42.3141 81.6678C42.3244 81.6842 42.3304 81.6937 42.3304 81.6937L47.7226 81.3035L49.319 81.1949L50.1594 79.5003L50.2223 79.363L50.5398 78.2039L50.5686 78.0899L50.733 75.7067L50.8046 73.2093L51.0428 71.883L51.236 70.8079L51.5621 69.0608L50.5441 68.7255Z" fill="white"/>
<path d="M101.335 65.6309L99.0972 64.9276L96.7827 64.8686L93.9744 64.332L93.8468 66.828L93.8775 69.2202L93.9024 71.6148L93.5437 73.9856L93.0347 76.7092L92.7908 79.2333L92.615 81.5368L94.8064 81.741L98.0024 81.8924L100.24 82.4007L103.182 82.5927L106.093 82.4428L106.531 80.1263L106.283 77.7252L106.489 75.3481L106.555 72.9625L107.007 70.5988L107.231 68.2179L107.052 65.8716L104.218 65.8745L101.335 65.6309Z" fill="white"/>
<path d="M102.245 42.5861L101.749 42.6281L101.26 42.7395L101.731 42.9174L102.206 43.0668L102.621 43.2592L102.726 42.8528L102.668 42.4565L102.245 42.5861Z" fill="white"/>
<path d="M111.6 5.72252L108.992 5.42109L106.356 5.2908L103.809 4.7038L101.309 3.87057L98.729 3.45204L96.0646 2.91309L96.1235 5.7898L96.2139 8.57025L95.9451 11.3315L95.5312 14.0869L95.7262 16.8644L95.7496 19.6364L95.1408 22.3847L95.0644 25.1529L95.2575 27.9299L94.8353 30.6827L95.2887 33.4698L94.9011 36.2228L94.9823 38.995L94.7136 41.7508L94.4079 44.5092L94.4357 47.2792L94.5809 50.0544L94.3487 52.8147L94.1225 55.5753L94.018 58.3401L94.0695 60.4675L96.7623 61.2079L99.5259 61.3893L102.288 61.5353L105.026 61.9776L107.961 62.3977L107.806 59.4861L108.232 56.8434L108.905 54.2333L109.16 51.5761L109.489 48.9277L109.464 46.2383L110.183 43.6336L110.07 40.9342L110.419 38.2885L110.985 35.6689L110.972 32.9818L111.509 30.3598L111.637 27.6897L111.887 25.0366L112.4 22.4106L112.546 19.7425L112.978 17.1066L113.206 14.4481L113.215 11.7645L113.912 9.15986L114 6.58158L111.6 5.72252ZM105.263 53.0021L105.091 53.4903L104.802 53.9207L104.317 54.3284L103.813 54.7205L103.472 54.7611L103.042 54.8644L102.52 54.8628L101.99 54.9191L101.472 54.7959L100.947 54.7003L100.423 54.6524L99.9086 54.5678L99.5119 54.4919L99.1341 54.3366L98.7179 53.85L98.2681 53.392L98.0891 52.8976L98.0846 52.378L98.05 51.8714L98.1277 51.401L98.2003 50.9127L98.4696 50.5003L98.8562 50.2023L99.183 49.8835L99.6099 49.7233L100.037 49.5888L100.48 49.5272L100.851 49.4679L100.729 50.0528L100.797 50.6458L100.73 51.2424L100.507 51.2692L99.9394 51.4712L99.7312 52.0234L99.8066 52.4303L100.046 52.6923L100.386 52.9207L100.986 53.1005L101.621 53.0705L102.234 53.1935L102.847 53.1423L103.198 52.9637L103.463 52.729L103.638 52.2085L103.45 51.6631L102.758 51.3563L102.676 51.7785L102.618 52.2054L102.643 52.6388L102.086 52.5497L101.519 52.5886L101.124 52.4808L101.088 51.998L101.211 51.5034L101.213 51.0001L101.347 50.5092L101.292 50.0044L101.396 49.5221L101.787 49.5763L102.354 49.6192L102.917 49.6817L103.448 49.6965L103.933 49.9087L104.359 50.215L104.715 50.5918L105.026 51.001L105.262 51.4627L105.303 51.9802L105.404 52.4971L105.263 53.0021ZM106.312 40.496L106.268 40.9492L106.297 41.4073L106.254 41.8709L105.739 41.9676L105.233 42.0583L104.717 42.1937L104.717 42.6832L104.596 43.1387L104.563 43.6006L104.541 44.0956L105.05 44.2855L105.532 44.4631L105.972 44.6928L105.996 45.1347L105.882 45.583L105.867 46.0386L105.861 46.5375L105.392 46.2248L104.917 46.0197L104.441 45.8189L103.933 45.6895L103.518 45.3629L103.022 45.2127L102.531 45.0502L102.055 44.8526L101.615 44.5804L101.15 44.361L100.675 44.1631L100.194 43.9852L99.729 43.7716L99.2981 43.4819L98.756 43.3453L98.86 42.8645L98.8363 42.4137L98.8824 41.9317L99.4323 41.8569L99.925 41.6939L100.424 41.5595L100.938 41.4903L101.413 41.2781L101.941 41.2666L102.432 41.1105L102.917 40.9329L103.411 40.7899L103.898 40.6245L104.402 40.5199L104.898 40.3926L105.402 40.2975L105.889 40.1354L106.418 40.0152L106.312 40.496ZM107.109 31.4535L107.075 32.0084L106.567 31.9413L106.034 31.9789L105.511 31.9223L104.99 31.8486L104.475 31.8003L104.874 32.0203L105.274 32.2484L105.681 32.4626L106.094 32.6585L106.077 33.0913L105.978 33.5182L106.016 33.9795L105.543 34.0767L105.12 34.2572L104.682 34.3847L104.228 34.5257L104.768 34.5783L105.288 34.6633L105.815 34.644L106.338 34.6708L106.898 34.7098L106.846 35.3167L106.804 35.8871L106.67 36.4111L106.182 36.4467L105.666 36.3417L105.15 36.2498L104.626 36.2662L104.104 36.2798L103.589 36.2174L103.073 36.1475L102.559 36.0577L102.043 35.998L101.525 35.9769L101.003 35.9714L100.486 35.9455L99.9708 35.9102L99.4133 35.8625L99.5149 35.3155L99.5064 34.8021L99.6437 34.3397L100.054 34.1096L100.54 33.9877L101.018 33.8492L101.489 33.6909L101.972 33.5758L102.433 33.3948L102.903 33.2373L103.326 33.0556L102.948 32.7886L102.46 32.6448L102.02 32.4159L101.622 32.1072L101.198 31.8547L100.74 31.6642L100.27 31.4968L99.8774 31.2075L99.9616 30.7133L100.013 30.2034L100.016 29.7213L100.515 29.6758L101.032 29.7674L101.546 29.8779L102.068 29.8919L102.583 29.9552L103.099 30.0126L103.627 29.9385L104.143 30.0152L104.651 30.1548L105.172 30.1541L105.689 30.2105L106.211 30.1767L106.717 30.3193L107.185 30.3557L107.207 30.8879L107.109 31.4535ZM108.01 21.6248L107.955 22.1578L107.924 22.6914L107.887 23.2237L107.827 23.7513L107.744 24.2775L107.664 24.8047L107.614 25.3352L107.639 25.8903L107.105 25.7683L106.573 25.8406L106.061 25.6957L105.537 25.7156L105.025 25.6188L104.5 25.6636L103.991 25.5245L103.465 25.5643L102.955 25.444L102.439 25.3906L101.915 25.4096L101.404 25.3094L100.888 25.2902L100.351 25.2588L100.359 24.7018L100.488 24.1753L100.507 23.6406L100.545 23.1085L100.618 22.5821L100.659 22.0521L100.74 21.525L100.717 20.9881L100.811 20.4929L101.347 20.487L101.903 20.5909L102.451 20.6188L102.352 21.1147L102.365 21.6338L102.348 22.1488L102.267 22.6574L102.264 23.1701L102.168 23.7061L102.748 23.7696L103.343 23.8227L103.401 23.2524L103.34 22.7169L103.442 22.197L103.462 21.6709L103.493 21.1046L104.077 21.1535L104.611 21.2939L105.158 21.2909L105.172 21.8241L105.018 22.3409L105.069 22.8741L104.924 23.3894L104.923 23.9213L105.514 23.9135L106.1 24.0291L106.192 23.5064L106.206 22.9896L106.196 22.4723L106.302 21.9659L106.282 21.4511L106.337 20.9206L106.917 20.9653L107.474 21.0492L108.086 21.0424L108.01 21.6248ZM108.619 14.8949L108.533 15.3717L108.391 15.8321L108.263 16.299L107.979 16.6927L107.716 17.0935L107.434 17.495L107.146 17.7155L106.761 17.2952L106.303 16.9404L105.894 16.5107L106.227 16.2651L106.593 15.8254L106.824 15.3004L106.839 14.7309L106.909 14.1384L106.427 13.843L106.027 13.8999L105.884 14.2889L105.798 14.6979L105.759 15.1185L105.471 15.6138L105.191 16.0844L104.843 16.5225L104.38 16.7893L103.856 16.8726L103.333 16.8928L102.885 16.8081L102.461 16.6503L102.052 16.4412L101.705 16.1306L101.458 15.708L101.343 15.2376L101.234 14.7661L101.328 14.2879L101.362 13.8044L101.511 13.343L101.6 12.8507L101.903 12.4573L102.238 12.1036L102.437 11.8535L102.894 12.1587L103.37 12.4771L103.758 12.8781L103.505 13.136L103.268 13.5647L103.026 13.9943L103.005 14.4882L103.063 15.0186L103.496 15.217L103.721 15.0719L103.997 14.6556L104.108 13.9679L104.308 13.393L104.683 12.9224L105.076 12.4742L105.54 12.2241L106.056 12.1272L106.58 12.0917L107.068 12.1576L107.482 12.4339L107.904 12.6584L108.2 13.0348L108.519 13.4206L108.637 13.9056L108.677 14.4014L108.619 14.8949Z" fill="white"/>
</g>
<defs>
<clipPath id="clip0_129_23898">
<rect width="114" height="85" fill="white"/>
</clipPath>
</defs>
</svg>
