<svg xmlns="http://www.w3.org/2000/svg" width="32" height="32" viewBox="0 0 32 32" fill="none">
<path d="M29.3339 7.73319C28.3317 8.16798 27.2718 8.4554 26.1872 8.58652C27.3315 7.90295 28.1889 6.82756 28.6006 5.55985C27.5253 6.19994 26.3483 6.65091 25.1206 6.89319C24.3 6.00328 23.2072 5.41091 22.0136 5.20899C20.8201 5.00706 19.5933 5.207 18.5256 5.77744C17.458 6.34788 16.6098 7.25656 16.1142 8.36097C15.6186 9.46537 15.5036 10.703 15.7872 11.8799C13.6131 11.7699 11.4865 11.2038 9.54544 10.2183C7.60439 9.23288 5.89236 7.85011 4.52057 6.15985C4.03942 7.00008 3.7866 7.95162 3.78724 8.91985C3.78553 9.81903 4.00619 10.7047 4.42958 11.4979C4.85296 12.2912 5.46593 12.9675 6.2139 13.4665C5.34454 13.4429 4.49375 13.2096 3.7339 12.7865V12.8532C3.74042 14.113 4.1819 15.332 4.98366 16.3038C5.78542 17.2756 6.89824 17.9407 8.1339 18.1865C7.65824 18.3313 7.1644 18.4076 6.66724 18.4132C6.32309 18.4092 5.9798 18.378 5.64057 18.3199C5.99245 19.4036 6.6734 20.3507 7.58867 21.0294C8.50394 21.7081 9.608 22.0846 10.7472 22.1065C8.82351 23.6202 6.44841 24.4463 4.00057 24.4532C3.55488 24.4546 3.10955 24.4279 2.66724 24.3732C5.16647 25.9869 8.07899 26.8435 11.0539 26.8398C13.1068 26.8612 15.1434 26.4732 17.0447 25.6986C18.946 24.924 20.6739 23.7784 22.1275 22.3285C23.5811 20.8787 24.7312 19.1537 25.5106 17.2544C26.2901 15.3551 26.6833 13.3195 26.6672 11.2665V10.5599C27.7135 9.7796 28.6159 8.82309 29.3339 7.73319Z" fill="white"/>
</svg>