<svg xmlns="http://www.w3.org/2000/svg" width="32" height="32" viewBox="0 0 32 32" fill="none">
<path d="M16.3259 5.33319C17.0379 5.33719 18.8192 5.35452 20.7126 5.43052L21.3846 5.45986C23.2899 5.54919 25.1939 5.70386 26.1392 5.96652C27.3992 6.32119 28.3886 7.35319 28.7232 8.66252C29.2566 10.7425 29.3232 14.7985 29.3312 15.7812L29.3326 15.9839V16.2159C29.3232 17.1985 29.2566 21.2559 28.7232 23.3345C28.3846 24.6479 27.3939 25.6812 26.1392 26.0305C25.1939 26.2932 23.2899 26.4479 21.3846 26.5372L20.7126 26.5679C18.8192 26.6425 17.0379 26.6612 16.3259 26.6639L16.0126 26.6652H15.6726C14.1659 26.6559 7.86457 26.5879 5.85924 26.0305C4.60057 25.6759 3.6099 24.6439 3.27524 23.3345C2.7419 21.2545 2.67524 17.1985 2.66724 16.2159V15.7812C2.67524 14.7985 2.7419 10.7412 3.27524 8.66252C3.6139 7.34919 4.60457 6.31586 5.86057 5.96786C7.86457 5.40919 14.1672 5.34119 15.6739 5.33319H16.3259ZM13.3326 11.3332V20.6665L21.3326 15.9999L13.3326 11.3332Z" fill="white"/>
</svg>